<?xml version="1.0" encoding="UTF-8" standalone="no"?><!DOCTYPE svg PUBLIC "-//W3C//DTD SVG 1.1//EN" "http://www.w3.org/Graphics/SVG/1.1/DTD/svg11.dtd"><svg width="100%" height="100%" viewBox="0 0 1250 1250" version="1.1" xmlns="http://www.w3.org/2000/svg" xmlns:xlink="http://www.w3.org/1999/xlink" xml:space="preserve" xmlns:serif="http://www.serif.com/" style="fill-rule:evenodd;clip-rule:evenodd;stroke-linejoin:round;stroke-miterlimit:2;"><rect id="execute" x="0.95" y="1.843" width="1250" height="1250" style="fill:none;"/><clipPath id="_clip1"><path d="M243.137,189.343l765.625,-0c30.203,-0 54.688,24.484 54.688,54.687l-0,765.625c-0,30.203 -24.485,54.688 -54.688,54.688l-765.625,-0c-30.203,-0 -54.687,-24.485 -54.687,-54.688l-0,-765.625c-0,-30.203 24.484,-54.687 54.687,-54.687Z"/></clipPath><g clip-path="url(#_clip1)"><rect x="185.715" y="186.608" width="880.469" height="880.469" style="fill:#c281d1;"/></g><g><clipPath id="_clip2"><path d="M829.816,756.456l316.967,233.437l-273.287,157.783l-43.68,-391.22Z"/></clipPath><g clip-path="url(#_clip2)"><clipPath id="_clip3"><path d="M68.969,1197.68l1250,-0l-0,-1250l-1250,-0l-0,1250Z" clip-rule="nonzero"/></clipPath><g clip-path="url(#_clip3)"><path d="M1319.03,1050.63l-410.737,237.138l-250.728,-434.273l410.737,-237.139l250.728,434.274Z" style="fill:#fed747;"/></g></g></g></svg>