<?xml version="1.0" encoding="UTF-8" standalone="no"?><!DOCTYPE svg PUBLIC "-//W3C//DTD SVG 1.1//EN" "http://www.w3.org/Graphics/SVG/1.1/DTD/svg11.dtd"><svg width="100%" height="100%" viewBox="0 0 1250 1253" version="1.1" xmlns="http://www.w3.org/2000/svg" xmlns:xlink="http://www.w3.org/1999/xlink" xml:space="preserve" xmlns:serif="http://www.serif.com/" style="fill-rule:evenodd;clip-rule:evenodd;stroke-linejoin:round;stroke-miterlimit:2;"><rect id="conversation" x="-0" y="0.325" width="1250" height="1250" style="fill:none;"/><clipPath id="_clip1"><path d="M761.028,85.796l423.09,183.395l-315.951,265.114l-107.139,-448.509Z"/></clipPath><g clip-path="url(#_clip1)"><path d="M1408.92,349.338l-473.425,397.251l-399.265,-475.825l473.425,-397.252l399.265,475.826Z" style="fill:#25bb70;"/></g><clipPath id="_clip2"><path d="M730.938,661.244l347.913,-0c43.388,-0 78.561,35.173 78.561,78.561l0,347.913c0,43.388 -35.173,78.561 -78.561,78.561l-347.913,-0c-43.388,-0 -78.561,-35.173 -78.561,-78.561l0,-347.913c0,-43.388 35.173,-78.561 78.561,-78.561Z"/></clipPath><g clip-path="url(#_clip2)"><rect x="649.572" y="658.438" width="510.646" height="510.646" style="fill:#c281d1;"/></g><clipPath id="_clip3"><path d="M111.519,950.055l24.355,-186.633l139.564,94.138l-163.919,92.495Z"/></clipPath><g clip-path="url(#_clip3)"><path d="M162.019,683.536l203.836,137.489l-140.917,208.917l-203.836,-137.489l140.917,-208.917Z" style="fill:#fe6d48;"/></g><clipPath id="_clip4"><path d="M338.155,871.856c137.912,-0 249.712,-111.8 249.712,-249.712c0,-137.912 -111.8,-249.711 -249.712,-249.711c-137.911,-0 -249.711,111.799 -249.711,249.711c-0,137.912 111.8,249.712 249.711,249.712Z"/></clipPath><g clip-path="url(#_clip4)"><rect x="85.638" y="369.627" width="505.035" height="505.035" style="fill:#fed747;"/></g><clipPath id="_clip5"><path d="M822.346,802.082l260.934,-0c5.424,-0 9.821,4.396 9.821,9.82c-0,5.423 -4.397,9.82 -9.821,9.82l-260.934,0c-5.424,0 -9.82,-4.397 -9.82,-9.82c-0,-5.424 4.396,-9.82 9.82,-9.82Z"/></clipPath><g clip-path="url(#_clip5)"><rect x="809.72" y="799.276" width="286.186" height="25.252" style="fill:#fed747;"/></g><clipPath id="_clip6"><path d="M715.727,905.895l260.935,-0c5.424,-0 9.82,4.396 9.82,9.82c0,5.423 -4.396,9.82 -9.82,9.82l-260.935,-0c-5.423,-0 -9.82,-4.397 -9.82,-9.82c0,-5.424 4.397,-9.82 9.82,-9.82Z"/></clipPath><g clip-path="url(#_clip6)"><rect x="703.101" y="903.089" width="286.186" height="25.252" style="fill:#fed747;"/></g><clipPath id="_clip7"><path d="M822.346,1009.71l260.934,0c5.424,0 9.821,4.397 9.821,9.82c-0,5.424 -4.397,9.82 -9.821,9.82l-260.934,0c-5.424,0 -9.82,-4.396 -9.82,-9.82c-0,-5.423 4.396,-9.82 9.82,-9.82Z"/></clipPath><g clip-path="url(#_clip7)"><rect x="809.72" y="1006.9" width="286.186" height="25.252" style="fill:#fed747;"/></g></svg>