<?xml version="1.0" encoding="UTF-8"?>
<svg width="600px" height="600px" viewBox="0 0 600 600" version="1.1" xmlns="http://www.w3.org/2000/svg" xmlns:xlink="http://www.w3.org/1999/xlink">
    <title>Group</title>
    <g id="Group" stroke="none" stroke-width="1" fill="none" fill-rule="evenodd">
        <rect fill="#FFFFFF" opacity="0" x="0" y="0" width="600" height="600"></rect>
        <rect id="Rectangle" x="0" y="0" width="600" height="600"></rect>
        <g id="Group-Copy-2" transform="translate(108.000000, 50.000000)">
            <circle id="Oval" fill="#FCC232" cx="192" cy="300" r="160"></circle>
            <path d="M378.453789,58.7016295 C381.464351,60.4054082 382.523708,64.2271366 380.81993,67.2376988 C380.802144,67.2691262 380.784086,67.3003991 380.76576,67.3315142 L332.340983,149.547155 C330.545784,152.595046 326.639014,153.641681 323.560531,151.899463 C320.549969,150.195685 319.490612,146.373956 321.19439,143.363394 C321.212176,143.331967 321.230233,143.300694 321.24856,143.269579 L369.673337,61.0539381 C371.468536,58.0060473 375.375306,56.9594123 378.453789,58.7016295 Z" id="Rectangle" fill="#FF8144"></path>
            <path d="M5.54621145,67.6633782 C8.62469436,65.9211609 12.5314641,66.9677959 14.3266631,70.0156868 L62.75144,152.231327 C64.5070314,155.211972 63.5139292,159.051451 60.5332841,160.807042 C60.5021691,160.825369 60.4708961,160.843426 60.4394687,160.861212 C57.3609858,162.603429 53.4542161,161.556794 51.6590171,158.508903 L3.23424019,76.2932628 C1.47864875,73.3126177 2.47175097,69.4731393 5.45239609,67.7175479 C5.48351114,67.6992212 5.5147841,67.681164 5.54621145,67.6633782 Z" id="Rectangle-Copy-6" fill="#FF8144"></path>
            <path d="M84.7113505,21.8330996 C87.9752706,20.6608518 91.5739745,22.3388593 92.7741302,25.592621 L125.221363,113.560852 C126.408319,116.778828 124.761852,120.349731 121.543876,121.536688 C121.527243,121.542823 121.510585,121.548886 121.4939,121.554879 C118.22998,122.727126 114.631276,121.049119 113.43112,117.795357 L80.9838873,29.8271263 C79.7969312,26.6091499 81.4433984,23.0382466 84.6613748,21.8512905 C84.6780073,21.8451556 84.6946661,21.8390919 84.7113505,21.8330996 Z" id="Rectangle-Copy-7" fill="#FF8144"></path>
            <path d="M296.539246,15.5598756 C299.767269,16.7192308 301.444256,20.2759036 300.2849,23.5039265 C300.278908,23.5206109 300.272844,23.5372697 300.266709,23.5539022 L267.819476,111.522133 C266.619321,114.775895 263.020617,116.453902 259.756697,115.281654 C256.528674,114.122299 254.851687,110.565626 256.011042,107.337604 C256.017035,107.320919 256.023098,107.30426 256.029233,107.287628 L288.476467,19.319397 C289.676622,16.0656352 293.275326,14.3876277 296.539246,15.5598756 Z" id="Rectangle-Copy-8" fill="#FF8144"></path>
            <rect id="Rectangle-Copy-9" fill="#FF8144" x="186.959427" y="0" width="11.9140811" height="106.644809" rx="5.95704057"></rect>
        </g>
    </g>
</svg>