<?xml version="1.0" encoding="UTF-8" standalone="no"?><!DOCTYPE svg PUBLIC "-//W3C//DTD SVG 1.1//EN" "http://www.w3.org/Graphics/SVG/1.1/DTD/svg11.dtd"><svg width="100%" height="100%" viewBox="0 0 1669 2084" version="1.1" xmlns="http://www.w3.org/2000/svg" xmlns:xlink="http://www.w3.org/1999/xlink" xml:space="preserve" xmlns:serif="http://www.serif.com/" style="fill-rule:evenodd;clip-rule:evenodd;stroke-linejoin:round;stroke-miterlimit:2;"><rect id="header" x="0.978" y="0" width="1666.67" height="2083.33" style="fill:none;"/><path d="M319.734,1660.24l404.262,-0c92.917,-0 168.241,75.324 168.241,168.241c0,92.917 -75.324,168.241 -168.241,168.241l-404.262,-0c-92.917,-0 -168.241,-75.324 -168.241,-168.241c-0,-92.917 75.324,-168.241 168.241,-168.241Z" style="fill:#fed747;"/><path d="M1024.17,633.852l404.263,0c92.917,0 168.241,75.324 168.241,168.241c0,92.917 -75.324,168.242 -168.241,168.242l-404.263,-0c-92.917,-0 -168.241,-75.325 -168.241,-168.242c0,-92.917 75.324,-168.241 168.241,-168.241Z" style="fill:#fed747;"/><path d="M786.935,586.648l0,392.159c0,102.944 -83.452,186.397 -186.396,186.397c-102.944,-0 -186.397,-83.453 -186.397,-186.397l0,-392.159c0,-102.944 83.453,-186.397 186.397,-186.397c102.944,0 186.396,83.453 186.396,186.397Z" style="fill:#25bb70;"/><ellipse cx="253.163" cy="1292.29" rx="186.397" ry="186.397" style="fill:#c281d1;"/><path d="M1216.62,77.083l360.689,0l-358.392,372.794l-2.297,-372.794Z" style="fill:#c281d1;"/><ellipse cx="1246.88" cy="1477.48" rx="371.583" ry="371.583" style="fill:#fe6d48;"/></svg>