<?xml version="1.0" encoding="UTF-8"?>
<svg width="586px" height="726px" viewBox="0 0 586 726" version="1.1" xmlns="http://www.w3.org/2000/svg" xmlns:xlink="http://www.w3.org/1999/xlink">
    <title>Hero shapes thing</title>
    <g id="Page-1" stroke="none" stroke-width="1" fill="none" fill-rule="evenodd">
        <g id="Landing-Page-Desktop" transform="translate(-731.000000, -184.000000)">
            <g id="Hero-Section" transform="translate(129.000000, 184.000000)">
                <g id="Hero-shapes-thing" transform="translate(602.157629, -0.000000)">
                    <rect id="Rectangle" fill="#FCC232" x="31.988273" y="598.74401" width="279.668901" height="127.25599" rx="63.627995"></rect>
                    <path d="M361.575909,210.567465 L513.98882,210.567465 C549.129591,210.567465 577.616815,239.054689 577.616815,274.19546 C577.616815,309.336232 549.129591,337.823455 513.98882,337.823455 L361.575909,337.823455 C326.435138,337.823455 297.947914,309.336232 297.947914,274.19546 C297.947914,239.054689 326.435138,210.567465 361.575909,210.567465 Z" id="Rectangle-Copy" fill="#FCC232"></path>
                    <path d="M127.249627,196.497174 L275.802613,196.497174 C314.669211,196.497174 346.176813,228.004777 346.176813,266.871375 C346.176813,305.737972 314.669211,337.245575 275.802613,337.245575 L127.249627,337.245575 C88.3830291,337.245575 56.8754263,305.737972 56.8754263,266.871375 C56.8754263,228.004777 88.3830291,196.497174 127.249627,196.497174 Z" id="Rectangle-Copy-2" fill="#43BA7F" transform="translate(201.526120, 266.871375) rotate(90.000000) translate(-201.526120, -266.871375) "></path>
                    <ellipse id="Oval-Copy" fill="#FCC232" cx="70.3742006" cy="459.586381" rx="70.3742006" ry="70.4943253"></ellipse>
                    <ellipse id="Oval-Copy-3" fill="#FCC232" cx="445.733484" cy="534.586381" rx="70.3742006" ry="70.4943253"></ellipse>
                    <polygon id="Triangle" fill="#C281D1" points="434.126562 0 570.30521 0 434.993942 140.988651"></polygon>
                    <ellipse id="Oval-Copy-2" fill="#FF8144" cx="445.550945" cy="529.622951" rx="140.291426" ry="140.530895"></ellipse>
                </g>
            </g>
        </g>
    </g>
</svg>