<?xml version="1.0" encoding="UTF-8" standalone="no"?><!DOCTYPE svg PUBLIC "-//W3C//DTD SVG 1.1//EN" "http://www.w3.org/Graphics/SVG/1.1/DTD/svg11.dtd"><svg width="100%" height="100%" viewBox="0 0 1250 1250" version="1.1" xmlns="http://www.w3.org/2000/svg" xmlns:xlink="http://www.w3.org/1999/xlink" xml:space="preserve" xmlns:serif="http://www.serif.com/" style="fill-rule:evenodd;clip-rule:evenodd;stroke-linejoin:round;stroke-miterlimit:2;"><rect id="instagram" x="0.382" y="1.879" width="1250" height="1250" style="fill:none;"/><clipPath id="_clip1"><path d="M185.343,90.321l911.458,0c35.956,0 65.105,29.149 65.105,65.105l-0,911.458c-0,35.956 -29.149,65.104 -65.105,65.104l-911.458,0c-35.956,0 -65.104,-29.148 -65.104,-65.104l-0,-911.458c-0,-35.956 29.148,-65.105 65.104,-65.105Z"/></clipPath><g clip-path="url(#_clip1)"><rect x="116.984" y="87.066" width="1048.18" height="1048.18" style="fill:#fed747;"/></g><clipPath id="_clip2"><path d="M1002.3,319.316c38.382,0 69.496,-31.114 69.496,-69.496c0,-38.382 -31.114,-69.496 -69.496,-69.496c-38.382,0 -69.496,31.114 -69.496,69.496c-0,38.382 31.114,69.496 69.496,69.496Z"/></clipPath><g clip-path="url(#_clip2)"><rect x="930.817" y="178.338" width="142.964" height="142.964" style="fill:#fff;"/></g><clipPath id="_clip3"><path d="M641.072,856.35c126.734,-0 229.471,-102.738 229.471,-229.471c0,-126.734 -102.737,-229.472 -229.471,-229.472c-126.734,0 -229.471,102.738 -229.471,229.472c-0,126.733 102.737,229.471 229.471,229.471Z"/></clipPath><g clip-path="url(#_clip3)"><rect x="405.045" y="390.851" width="472.055" height="472.055" style="fill:#fff;"/></g></svg>