<?xml version="1.0" encoding="UTF-8" standalone="no"?><!DOCTYPE svg PUBLIC "-//W3C//DTD SVG 1.1//EN" "http://www.w3.org/Graphics/SVG/1.1/DTD/svg11.dtd"><svg width="100%" height="100%" viewBox="0 0 1250 1250" version="1.1" xmlns="http://www.w3.org/2000/svg" xmlns:xlink="http://www.w3.org/1999/xlink" xml:space="preserve" xmlns:serif="http://www.serif.com/" style="fill-rule:evenodd;clip-rule:evenodd;stroke-linejoin:round;stroke-miterlimit:2;"><rect id="learn" x="0.259" y="1.843" width="1250" height="1250" style="fill:none;"/><path d="M1017.64,248.157c3.162,-5.476 1.282,-12.49 -4.194,-15.652c-5.477,-3.162 -12.491,-1.283 -15.653,4.194l-92.708,160.575c-3.162,5.477 -1.283,12.491 4.194,15.653c5.477,3.162 12.49,1.283 15.652,-4.194l92.709,-160.576Z" style="fill:#fe6d48;"/><path d="M226.772,239.784c-3.162,-5.477 -1.282,-12.49 4.194,-15.652c5.477,-3.162 12.491,-1.283 15.653,4.194l92.708,160.575c3.162,5.477 1.283,12.491 -4.194,15.653c-5.477,3.162 -12.49,1.282 -15.652,-4.195l-92.709,-160.575Z" style="fill:#fe6d48;"/><path d="M415.541,143.595c-2.163,-5.942 -8.744,-9.011 -14.687,-6.848c-5.942,2.163 -9.011,8.743 -6.848,14.686l63.416,174.235c2.163,5.942 8.744,9.011 14.687,6.848c5.942,-2.163 9.011,-8.744 6.848,-14.686l-63.416,-174.235Z" style="fill:#fe6d48;"/><path d="M830.54,143.595c2.163,-5.942 8.744,-9.011 14.687,-6.848c5.942,2.163 9.011,8.743 6.848,14.686l-63.416,174.235c-2.163,5.942 -8.744,9.011 -14.687,6.848c-5.942,-2.163 -9.011,-8.744 -6.848,-14.686l63.416,-174.235Z" style="fill:#fe6d48;"/><path d="M613.801,105.997c0,-6.324 5.134,-11.459 11.458,-11.459c6.324,0 11.459,5.135 11.459,11.459l-0,185.416c-0,6.324 -5.135,11.459 -11.459,11.459c-6.324,-0 -11.458,-5.135 -11.458,-11.459l0,-185.416Z" style="fill:#fe6d48;"/><circle cx="625.259" cy="731.009" r="416.667" style="fill:#fed747;"/></svg>