<?xml version="1.0" encoding="UTF-8" standalone="no"?><!DOCTYPE svg PUBLIC "-//W3C//DTD SVG 1.1//EN" "http://www.w3.org/Graphics/SVG/1.1/DTD/svg11.dtd"><svg width="100%" height="100%" viewBox="0 0 1250 1253" version="1.1" xmlns="http://www.w3.org/2000/svg" xmlns:xlink="http://www.w3.org/1999/xlink" xml:space="preserve" xmlns:serif="http://www.serif.com/" style="fill-rule:evenodd;clip-rule:evenodd;stroke-linejoin:round;stroke-miterlimit:2;"><rect id="other" x="0" y="1.782" width="1250" height="1250" style="fill:none;"/><circle cx="625" cy="730.949" r="416.667" style="fill:#fed747;"/><clipPath id="_clip1"><path d="M642.644,1147.62c115.06,0 208.334,-93.274 208.334,-208.333c-0,-115.06 -93.274,-208.333 -208.334,-208.333c-115.059,-0 -208.333,93.273 -208.333,208.333c-0,115.059 93.274,208.333 208.333,208.333Z"/></clipPath><g clip-path="url(#_clip1)"><rect x="428.359" y="724.996" width="428.571" height="428.571" style="fill:#c281d1;"/></g><clipPath id="_clip2"><path d="M937.5,418.449c57.53,-0 104.167,-46.637 104.167,-104.167c-0,-57.53 -46.637,-104.167 -104.167,-104.167c-57.53,0 -104.167,46.637 -104.167,104.167c0,57.53 46.637,104.167 104.167,104.167Z"/></clipPath><g clip-path="url(#_clip2)"><rect x="830.357" y="207.139" width="214.286" height="214.286" style="fill:#c281d1;"/></g></svg>