<?xml version="1.0" encoding="UTF-8" standalone="no"?>
<!DOCTYPE svg PUBLIC "-//W3C//DTD SVG 1.1//EN" "http://www.w3.org/Graphics/SVG/1.1/DTD/svg11.dtd">
<svg width="100%" height="100%" viewBox="0 0 601 601" version="1.1" xmlns="http://www.w3.org/2000/svg" xmlns:xlink="http://www.w3.org/1999/xlink" xml:space="preserve" xmlns:serif="http://www.serif.com/" style="fill-rule:evenodd;clip-rule:evenodd;stroke-linejoin:round;stroke-miterlimit:2;">
    <g transform="matrix(1,0,0,1,-2617,-1736)">
        <g id="questions" transform="matrix(0.796674,0,0,1.08394,461.062,753.412)">
            <rect x="2707.07" y="907.068" width="753.131" height="553.536" style="fill:none;"/>
            <g transform="matrix(1.27596,0,0,0.937806,-466.082,-704.492)">
                <path d="M2892.07,1876.62C2980.37,1876.62 3052.07,1948.31 3052.07,2036.62C3052.07,2124.93 2980.37,2196.62 2892.07,2196.62C2803.76,2196.62 2732.07,2124.93 2732.07,2036.62C2732.07,1948.31 2803.76,1876.62 2892.07,1876.62ZM2892.07,1936.42C2947.37,1936.42 2992.27,1981.32 2992.27,2036.62C2992.27,2091.92 2947.37,2136.82 2892.07,2136.82C2836.76,2136.82 2791.87,2091.92 2791.87,2036.62C2791.87,1981.32 2836.76,1936.42 2892.07,1936.42Z" style="fill:rgb(254,215,71);"/>
                <clipPath id="_clip1">
                    <path d="M2892.07,1876.62C2980.37,1876.62 3052.07,1948.31 3052.07,2036.62C3052.07,2124.93 2980.37,2196.62 2892.07,2196.62C2803.76,2196.62 2732.07,2124.93 2732.07,2036.62C2732.07,1948.31 2803.76,1876.62 2892.07,1876.62ZM2892.07,1936.42C2947.37,1936.42 2992.27,1981.32 2992.27,2036.62C2992.27,2091.92 2947.37,2136.82 2892.07,2136.82C2836.76,2136.82 2791.87,2091.92 2791.87,2036.62C2791.87,1981.32 2836.76,1936.42 2892.07,1936.42Z"/>
                </clipPath>
                <g clip-path="url(#_clip1)">
                    <g transform="matrix(0.900952,0.900952,-3.72739,3.72739,7456.11,-7919.73)">
                        <rect x="2974.45" y="1915.23" width="44.907" height="63.031" style="fill:rgb(254,109,72);"/>
                    </g>
                    <g transform="matrix(0.806222,-0.986628,4.08185,3.33548,-7462.6,-1501.41)">
                        <rect x="2974.45" y="1915.23" width="44.907" height="63.031" style="fill:rgb(254,109,72);"/>
                    </g>
                </g>
            </g>
            <g transform="matrix(1.03647,0,0,1.03647,-138.671,221.294)">
                <g transform="matrix(1.05585,-1.8532e-32,-2.27951e-32,0.84806,2754.02,1059.18)">
                    <path d="M95.671,0L248.561,0C283.702,0 312.189,28.487 312.189,63.628C312.189,98.769 283.702,127.256 248.561,127.256L95.671,127.256C60.53,127.256 32.043,98.769 32.043,63.628C32.043,28.487 60.53,0 95.671,0Z" style="fill:rgb(194,129,209);"/>
                </g>
                <g transform="matrix(1.33084,0,0,1.08062,2547.85,902.937)">
                    <clipPath id="_clip2">
                        <path d="M267.5,170L360.5,170C362.433,170 364,171.567 364,173.5C364,175.433 362.433,177 360.5,177L267.5,177C265.567,177 264,175.433 264,173.5C264,171.567 265.567,170 267.5,170Z"/>
                    </clipPath>
                    <g clip-path="url(#_clip2)">
                        <rect x="263" y="169" width="102" height="9" style="fill:rgb(254,215,71);"/>
                    </g>
                </g>
                <g transform="matrix(1.33084,0,0,1.08062,2531.88,988.328)">
                    <clipPath id="_clip3">
                        <path d="M229.5,133L322.5,133C324.433,133 326,134.567 326,136.5C326,138.433 324.433,140 322.5,140L229.5,140C227.567,140 226,138.433 226,136.5C226,134.567 227.567,133 229.5,133Z"/>
                    </clipPath>
                    <g clip-path="url(#_clip3)">
                        <rect x="225" y="132" width="102" height="9" style="fill:rgb(254,215,71);"/>
                    </g>
                </g>
            </g>
            <g transform="matrix(-1.3657,-1.05915,1.37334,-0.956589,2727.64,2170.56)">
                <path d="M434.868,585.011L571.279,585.011L503.073,713.252L434.868,585.011Z" style="fill:rgb(37,187,112);"/>
            </g>
        </g>
    </g>
</svg>
