<?xml version="1.0" encoding="UTF-8" standalone="no"?><!DOCTYPE svg PUBLIC "-//W3C//DTD SVG 1.1//EN" "http://www.w3.org/Graphics/SVG/1.1/DTD/svg11.dtd"><svg width="100%" height="100%" viewBox="0 0 1250 1250" version="1.1" xmlns="http://www.w3.org/2000/svg" xmlns:xlink="http://www.w3.org/1999/xlink" xml:space="preserve" xmlns:serif="http://www.serif.com/" style="fill-rule:evenodd;clip-rule:evenodd;stroke-linejoin:round;stroke-miterlimit:2;"><rect id="showfloor" x="0" y="1.811" width="1250" height="1250" style="fill:none;"/><clipPath id="_clip1"><path d="M169.653,105.977l911.458,0c35.956,0 65.104,29.148 65.104,65.104l0,911.459c0,35.956 -29.148,65.104 -65.104,65.104l-911.458,-0c-35.956,-0 -65.104,-29.148 -65.104,-65.104l-0,-911.459c-0,-35.956 29.148,-65.104 65.104,-65.104Z"/></clipPath><g clip-path="url(#_clip1)"><rect x="101.294" y="102.722" width="1048.18" height="1048.18" style="fill:#c281d1;"/></g><path d="M625.382,270.124l249.79,499.579l-499.58,0l249.79,-499.579Z" style="fill:#fed747;"/><path d="M419.999,808.3c1.43,-5.335 6.921,-8.506 12.256,-7.076c5.335,1.429 8.505,6.921 7.076,12.255l-41.91,156.411c-1.43,5.334 -6.921,8.505 -12.256,7.076c-5.335,-1.43 -8.505,-6.922 -7.076,-12.256l41.91,-156.41Z" style="fill:#fed747;"/><path d="M831.2,808.637c-1.43,-5.334 -6.922,-8.505 -12.256,-7.076c-5.335,1.43 -8.505,6.922 -7.076,12.256l41.91,156.41c1.429,5.335 6.921,8.506 12.256,7.076c5.334,-1.429 8.505,-6.921 7.076,-12.255l-41.91,-156.411Z" style="fill:#fed747;"/><path d="M522.04,810.258c0.721,-5.476 5.751,-9.336 11.227,-8.615c5.476,0.721 9.336,5.752 8.615,11.227l-21.136,160.543c-0.721,5.475 -5.751,9.336 -11.227,8.615c-5.476,-0.721 -9.336,-5.752 -8.615,-11.228l21.136,-160.542Z" style="fill:#fed747;"/><path d="M729.159,810.596c-0.721,-5.476 -5.752,-9.336 -11.227,-8.615c-5.476,0.721 -9.336,5.751 -8.615,11.227l21.136,160.542c0.72,5.476 5.751,9.336 11.227,8.615c5.476,-0.72 9.336,-5.751 8.615,-11.227l-21.136,-160.542Z" style="fill:#fed747;"/><path d="M615.375,811.563c0,-5.523 4.484,-10.007 10.007,-10.007c5.523,0 10.007,4.484 10.007,10.007l-0,161.928c-0,5.523 -4.484,10.007 -10.007,10.007c-5.523,-0 -10.007,-4.484 -10.007,-10.007l0,-161.928Z" style="fill:#fed747;"/></svg>