<?xml version="1.0" encoding="UTF-8" standalone="no"?><!DOCTYPE svg PUBLIC "-//W3C//DTD SVG 1.1//EN" "http://www.w3.org/Graphics/SVG/1.1/DTD/svg11.dtd"><svg width="100%" height="100%" viewBox="0 0 1253 1253" version="1.1" xmlns="http://www.w3.org/2000/svg" xmlns:xlink="http://www.w3.org/1999/xlink" xml:space="preserve" xmlns:serif="http://www.serif.com/" style="fill-rule:evenodd;clip-rule:evenodd;stroke-linejoin:round;stroke-miterlimit:2;"><rect id="social" x="2.02" y="1.563" width="1250" height="1250" style="fill:none;"/><clipPath id="_clip1"><path d="M558.194,314.063l416.667,833.333l-833.334,0l416.667,-833.333Z"/></clipPath><g clip-path="url(#_clip1)"><rect x="138.83" y="311.366" width="838.727" height="838.727" style="fill:#fed747;"/></g><clipPath id="_clip2"><path d="M854.717,620.196l263.6,527.2l-527.201,0l263.601,-527.2Z"/></clipPath><g clip-path="url(#_clip2)"><rect x="588.569" y="617.649" width="532.294" height="532.294" style="fill:#fe6d48;"/></g><clipPath id="_clip3"><path d="M854.717,620.196c49.23,-0 89.14,-39.909 89.14,-89.14c-0,-49.231 -39.91,-89.14 -89.14,-89.14c-49.231,-0 -89.141,39.909 -89.141,89.14c0,49.231 39.91,89.14 89.141,89.14Z"/></clipPath><g clip-path="url(#_clip3)"><rect x="763.03" y="439.369" width="183.374" height="183.374" style="fill:#25bb70;"/></g><clipPath id="_clip4"><path d="M558.194,314.063c57.53,0 104.167,-46.637 104.167,-104.167c-0,-57.529 -46.637,-104.166 -104.167,-104.166c-57.53,-0 -104.167,46.637 -104.167,104.166c0,57.53 46.637,104.167 104.167,104.167Z"/></clipPath><g clip-path="url(#_clip4)"><rect x="451.944" y="103.646" width="212.5" height="212.5" style="fill:#25bb70;"/></g></svg>